# xmcd CD database file
# Copyright (C) 2007 Ti Kan
# 
# Track frame offsets:
#     150
#     21390
#     44352
#     54070
#     71447
#     86189
#     116852
#     128260
#     144944
#     155719
#     176823
#     187047
#     211559
#     219831
#     240462
#     255270
#     273697
#     277629
#     291440
#     308625
# 
# Disc length: 4300 seconds
# 
# Revision: 1
# Processed by: cddbd v1.5.2PL0 Copyright (c) Steve Scherf et al.
# Submitted via: DiscPlay 4.0.4
# 
DISCID=1a10ca14
DTITLE=Hugh Gaskins - Hughmanity
DYEAR=1900
DGENRE=
TTITLE0=I Ain't Mad
TTITLE1=Hughmanity Blues
TTITLE2=Porn Angel
TTITLE3=Silhouette In Your Door
TTITLE4=Nothin' But A Smile Boogie
TTITLE5=Miss Opal
TTITLE6=Long Gone Momma
TTITLE7=Let Me In
TTITLE8=Train To Nowhere Blues
TTITLE9=Blue Rain
TTITLE10=Funky O.B.
TTITLE11=Driftin' Free
TTITLE12=Baby Please Don't Go
TTITLE13=House of the Risin' Sun
TTITLE14=Wine
TTITLE15=Find Another Man
TTITLE16=Michael
TTITLE17=Carolina Boogie
TTITLE18=Corina
TTITLE19=You Got Me Drivin'
EXTD=Submitted by ecto@cox.net
EXTT0=
EXTT1=
EXTT2=
EXTT3=
EXTT4=
EXTT5=
EXTT6=
EXTT7=
EXTT8=
EXTT9=
EXTT10=
EXTT11=
EXTT12=
EXTT13=
EXTT14=
EXTT15=
EXTT16=
EXTT17=
EXTT18=
EXTT19=
PLAYORDER=
